<svg id="Capa_1" enable-background="new 0 0 512 512" height="512" viewBox="0 0 512 512" width="512" xmlns="http://www.w3.org/2000/svg"><g><path d="m443.591 158.401c-7.011-18.157-19.07-34.328-34.521-46.115-18.254-13.926-40.063-21.286-63.07-21.286-22.248 0-43.317 6.908-61.016 19.759-7.308-11.84-16.906-22.135-28.382-30.344-17.755-12.702-38.711-19.415-60.602-19.415-53.123 0-97.159 39.657-104.06 90.92-51.826 6.833-91.94 50.904-91.94 104.08 0 22.979 7.566 44.832 21.882 63.194 11.988 15.377 28.304 27.397 46.527 34.405 7.011 18.157 19.07 34.328 34.521 46.115 18.254 13.926 40.063 21.286 63.07 21.286 22.249 0 43.318-6.908 61.016-19.759 7.308 11.84 16.906 22.135 28.382 30.344 17.755 12.702 38.711 19.415 60.602 19.415 53.123 0 97.159-39.657 104.06-90.92 51.826-6.833 91.94-50.904 91.94-104.08 0-22.979-7.566-44.832-21.881-63.193-11.989-15.378-28.304-27.398-46.528-34.406zm-37.591 172.599c-8.284 0-15 6.716-15 15 0 41.355-33.645 75-75 75-31.086 0-59.259-19.769-70.105-49.192-1.804-4.894-6.021-8.5-11.136-9.521-5.124-1.023-10.399.693-13.939 4.512-14.466 15.606-33.935 24.201-54.82 24.201-33.092 0-61.797-21.511-71.43-53.528-1.45-4.82-5.222-8.592-10.042-10.042-32.106-9.659-54.528-39.033-54.528-71.43 0-41.355 34.093-75 76-75 8.284 0 15-6.716 15-15 0-41.355 33.645-75 75-75 31.086 0 59.259 19.769 70.105 49.192 1.804 4.894 6.021 8.5 11.136 9.521 5.114 1.021 10.393-.687 13.939-4.512 14.467-15.606 33.936-24.201 54.82-24.201 33.092 0 61.797 21.511 71.43 53.528 1.45 4.82 5.222 8.592 10.042 10.042 32.106 9.659 54.528 39.033 54.528 71.43 0 41.355-34.093 75-76 75z"/><path d="m467 90c24.813 0 45-20.187 45-45s-20.187-45-45-45-45 20.187-45 45 20.187 45 45 45zm0-60c8.271 0 15 6.729 15 15s-6.729 15-15 15-15-6.729-15-15 6.729-15 15-15z"/><path d="m45 422c-24.813 0-45 20.187-45 45s20.187 45 45 45 45-20.187 45-45-20.187-45-45-45zm0 60c-8.271 0-15-6.729-15-15s6.729-15 15-15 15 6.729 15 15-6.729 15-15 15z"/><circle cx="256" cy="256" r="15"/><circle cx="466" cy="406" r="15"/><circle cx="46" cy="106" r="15"/><circle cx="196" cy="196" r="15"/><circle cx="316" cy="316" r="15"/><circle cx="346" cy="196" r="15"/><circle cx="166" cy="316" r="15"/><circle cx="106" cy="256" r="15"/><circle cx="406" cy="256" r="15"/><circle cx="196" cy="466" r="15"/><circle cx="286" cy="46" r="15"/></g></svg>