<?xml version="1.0" encoding="iso-8859-1"?>
<!-- Generator: Adobe Illustrator 19.0.0, SVG Export Plug-In . SVG Version: 6.00 Build 0)  -->
<svg version="1.1" id="Capa_1" xmlns="http://www.w3.org/2000/svg" xmlns:xlink="http://www.w3.org/1999/xlink" x="0px" y="0px"
	 viewBox="0 0 432 432" style="enable-background:new 0 0 432 432;" xml:space="preserve">
<g>
	<g>
		<path d="M376,112c-30.875,0-56,25.125-56,56c0,4.422,3.578,8,8,8c4.422,0,8-3.578,8-8c0-22.054,17.938-40,40-40
			c22.062,0,40,17.946,40,40s-17.938,40-40,40H9.266c-4.422,0-8,3.578-8,8c0,4.422,3.578,8,8,8H376c30.875,0,56-25.125,56-56
			S406.875,112,376,112z"/>
	</g>
</g>
<g>
	<g>
		<path d="M216,48c-30.875,0-56,25.125-56,56c0,4.422,3.578,8,8,8c4.422,0,8-3.578,8-8c0-22.054,17.938-40,40-40
			c22.062,0,40,17.946,40,40s-17.938,40-40,40H8c-4.422,0-8,3.578-8,8c0,4.422,3.578,8,8,8h208c30.875,0,56-25.125,56-56
			S246.875,48,216,48z"/>
	</g>
</g>
<g>
	<g>
		<path d="M216,272H8c-4.422,0-8,3.578-8,8c0,4.422,3.578,8,8,8h208c22.062,0,40,17.946,40,40c0,22.054-17.938,40-40,40
			c-22.062,0-40-17.946-40-40c0-4.422-3.578-8-8-8c-4.422,0-8,3.578-8,8c0,30.875,25.125,56,56,56s56-25.125,56-56
			C272,297.125,246.875,272,216,272z"/>
	</g>
</g>
<g>
</g>
<g>
</g>
<g>
</g>
<g>
</g>
<g>
</g>
<g>
</g>
<g>
</g>
<g>
</g>
<g>
</g>
<g>
</g>
<g>
</g>
<g>
</g>
<g>
</g>
<g>
</g>
<g>
</g>
</svg>
